<?xml version="1.0" standalone="no"?>
<!DOCTYPE svg PUBLIC "-//W3C//DTD SVG 20010904//EN"
 "http://www.w3.org/TR/2001/REC-SVG-20010904/DTD/svg10.dtd">
<svg version="1.0" xmlns="http://www.w3.org/2000/svg"
 width="400.000000pt" height="400.000000pt" viewBox="0 0 400.000000 400.000000"
 preserveAspectRatio="xMidYMid meet">
<metadata>
Created by potrace 1.11, written by Peter Selinger 2001-2013
</metadata>
<g transform="translate(0.000000,400.000000) scale(0.100000,-0.100000)"
fill="#000000" stroke="none">
<path d="M1239 3757 c-31 -21 -34 -27 -37 -81 -3 -55 -2 -59 37 -97 64 -64 23
-61 -51 4 -106 92 -157 106 -233 66 -163 -86 -311 -361 -331 -617 -5 -66 -14
-101 -36 -145 -111 -222 -82 -592 72 -897 22 -44 40 -82 40 -85 0 -3 -7 -5
-16 -5 -66 0 -214 -90 -214 -130 0 -34 20 -32 75 5 58 38 156 85 179 85 7 0
31 -23 54 -52 l42 -51 -47 -26 c-136 -75 -233 -172 -216 -217 10 -27 39 -14
93 42 56 57 147 132 186 152 19 10 30 4 88 -42 77 -61 202 -126 296 -155 90
-27 211 -51 260 -51 65 0 46 -16 -50 -41 -50 -13 -86 -25 -80 -27 24 -8 6 -30
-46 -55 -56 -28 -87 -28 -50 -1 15 11 16 14 4 14 -22 0 -50 -35 -46 -57 9 -42
102 -10 268 93 147 91 221 93 378 6 79 -44 110 -72 56 -52 -33 13 -33 13 -29
-7 2 -10 4 -21 4 -24 1 -3 15 -4 31 -1 33 5 33 4 21 -49 -5 -21 -5 -42 -1 -49
4 -6 10 16 14 50 6 50 10 61 22 56 9 -3 33 -9 54 -12 36 -6 38 -8 43 -54 7
-58 0 -88 -22 -93 -14 -4 -14 -5 0 -6 12 -1 18 -16 23 -60 4 -38 12 -61 21
-65 19 -7 19 7 2 42 -9 18 -13 60 -12 125 1 66 -3 107 -12 124 -12 23 -11 28
4 46 13 14 7 12 -21 -7 -48 -32 -61 -33 -41 -2 9 13 17 45 18 72 2 42 5 49 27
54 24 6 25 7 3 14 -12 4 -34 4 -49 0 -18 -5 -25 -3 -20 4 3 6 21 13 39 17 17
3 55 15 82 25 28 10 59 21 69 24 10 4 17 8 15 9 -2 2 -74 0 -159 -3 -150 -7
-158 -8 -250 -46 -89 -36 -101 -38 -195 -38 -293 2 -607 147 -653 302 -18 58
-15 111 10 188 26 81 25 86 -13 171 -16 36 -39 113 -51 172 -25 127 -18 196
32 297 66 135 241 243 392 244 67 0 133 -16 303 -72 195 -65 284 -73 392 -35
86 30 126 52 257 146 110 78 132 84 202 52 45 -20 83 -64 108 -124 15 -36 39
-254 31 -280 -2 -6 -6 -77 -8 -157 -4 -105 -3 -134 4 -105 15 63 39 241 45
345 11 174 -35 347 -119 445 l-34 40 23 35 c27 39 32 105 11 134 -11 16 -17
17 -36 7 -26 -14 -93 -11 -98 5 -2 6 13 15 34 20 24 6 42 18 50 34 13 27 7 43
-7 20 -12 -19 -15 -14 -26 39 -12 60 -34 72 -74 43 -53 -40 -71 4 -21 52 26
25 28 31 20 68 -34 151 -119 175 -307 88 l-42 -20 -76 37 c-130 62 -234 58
-468 -18 -150 -48 -202 -37 -213 48 -4 29 -1 44 12 56 24 24 4 21 -36 -6z
m632 -234 c13 -16 12 -17 -3 -4 -17 13 -22 21 -14 21 2 0 10 -8 17 -17z m429
-298 c-24 -25 -46 -45 -49 -45 -3 0 15 20 39 45 24 25 46 45 49 45 3 0 -15
-20 -39 -45z m-240 -79 c0 -2 -8 -10 -17 -17 -16 -13 -17 -12 -4 4 13 16 21
21 21 13z m335 -56 c-3 -5 -12 -10 -18 -10 -7 0 -6 4 3 10 19 12 23 12 15 0z"/>
<path d="M2152 2417 c-12 -13 -29 -53 -38 -90 -14 -57 -15 -76 -5 -121 34
-151 144 -86 144 85 0 65 -10 100 -20 72 -7 -18 -30 -16 -37 3 -3 9 -6 29 -6
45 0 35 -9 37 -38 6z"/>
<path d="M1342 2395 c0 -16 2 -22 5 -12 2 9 2 23 0 30 -3 6 -5 -1 -5 -18z"/>
<path d="M1472 2394 c-54 -37 -69 -152 -33 -236 18 -44 71 -98 95 -98 20 0 55
30 71 60 21 41 19 145 -4 196 -25 54 -41 64 -41 25 0 -17 -5 -31 -11 -31 -18
0 -38 32 -39 62 0 35 -11 41 -38 22z"/>
<path d="M2795 2204 c-118 -28 -163 -52 -139 -77 3 -3 25 1 47 10 23 8 80 18
127 22 72 5 85 9 88 25 8 37 -26 43 -123 20z"/>
<path d="M1924 2063 c-12 -2 -30 -13 -39 -23 -17 -19 -17 -20 6 -28 47 -18
130 12 103 37 -13 12 -45 19 -70 14z m65 -19 c16 -14 -32 -28 -88 -25 -19 1
-21 4 -11 15 18 22 79 28 99 10z"/>
<path d="M2703 2033 c-13 -2 -23 -10 -23 -18 0 -14 22 -20 110 -30 30 -4 76
-13 102 -21 49 -16 68 -13 68 11 0 23 -52 43 -141 55 -46 5 -86 9 -89 9 -3 -1
-15 -4 -27 -6z"/>
<path d="M2173 1914 c-34 -35 -59 -64 -57 -64 9 0 106 94 115 112 13 25 12 23
-58 -48z"/>
<path d="M1715 1886 c-12 -17 -13 -30 -6 -48 11 -30 51 -46 136 -55 55 -6 59
-5 47 10 -9 10 -27 16 -48 15 -25 -1 -43 7 -66 28 l-32 29 17 -27 c17 -27 17
-27 -5 -19 -18 6 -23 16 -23 42 0 27 5 34 25 40 l25 7 -27 1 c-19 1 -33 -7
-43 -23z"/>
<path d="M2074 1834 c-18 -14 -18 -15 4 -4 12 6 22 13 22 15 0 8 -5 6 -26 -11z"/>
<path d="M2965 1532 c-59 -5 -62 -17 -8 -40 74 -32 199 -53 288 -50 l80 3 -59
28 c-95 45 -211 68 -301 59z"/>
<path d="M3499 1380 c-20 -76 -42 -95 -175 -145 -53 -20 -69 -23 -76 -13 -4 7
-5 20 -2 28 13 30 10 55 -6 51 -36 -10 -188 3 -202 17 -26 26 -36 12 -43 -63
l-7 -74 -44 25 c-24 14 -44 24 -44 21 0 -3 17 -15 38 -27 33 -20 35 -23 17
-30 -18 -6 -17 -7 5 -13 23 -7 90 -60 90 -72 0 -11 -28 -4 -40 10 -7 8 -18 15
-24 15 -6 0 -4 -5 4 -10 11 -7 12 -10 2 -10 -8 0 -16 9 -19 20 -6 21 -18 26
-27 11 -3 -4 3 -16 14 -26 11 -10 20 -24 20 -32 0 -7 11 -19 25 -25 18 -8 24
-16 19 -27 -19 -42 15 -132 53 -141 12 -3 38 -24 58 -47 l36 -43 -20 -28 c-11
-16 -28 -35 -38 -43 -11 -9 -8 -1 8 21 43 59 43 67 -1 18 -32 -36 -49 -48 -70
-48 -16 0 -31 4 -34 8 -2 4 9 29 25 55 16 26 29 52 29 59 0 6 -18 -17 -40 -50
l-40 -62 -36 17 -36 18 5 60 c6 59 5 59 -5 15 -14 -62 -21 -66 -52 -30 -29 35
-29 66 2 144 12 31 17 35 24 22 5 -9 23 -23 41 -32 l32 -17 -30 29 c-17 16
-38 40 -48 54 -9 14 -16 18 -15 10 1 -8 -9 -46 -22 -85 -20 -61 -24 -67 -33
-48 -7 17 -4 35 12 73 12 28 20 59 18 68 -2 9 -10 -4 -17 -31 -7 -26 -17 -50
-22 -53 -7 -4 -7 2 -2 17 5 13 8 40 7 59 -1 27 1 31 7 15 6 -13 9 -15 9 -5 0
8 -3 22 -9 30 -7 11 -11 9 -19 -13 -6 -16 -11 -33 -11 -38 0 -5 -13 -9 -29 -9
-16 0 -38 -3 -48 -7 -14 -6 -11 -9 16 -13 30 -5 35 -10 55 -66 44 -120 80
-159 199 -212 37 -17 70 -38 73 -46 11 -28 -29 -76 -86 -104 -105 -52 -225
-30 -372 67 -130 86 -298 280 -298 343 0 32 -18 71 -64 138 -17 25 -43 68 -58
95 -16 29 -28 42 -28 31 0 -21 21 -58 86 -156 49 -73 64 -134 41 -165 -13 -17
-18 -18 -41 -7 -22 10 -25 15 -16 31 17 33 12 111 -11 147 -28 46 -32 43 -9
-8 24 -53 26 -104 4 -112 -20 -8 -98 -8 -118 0 -12 5 -16 20 -16 59 0 36 -10
78 -30 128 -34 85 -35 93 -17 100 9 4 9 6 -1 6 -24 2 -24 -28 2 -103 27 -78
36 -186 15 -186 -8 0 -9 -20 -4 -66 l7 -65 -29 3 -28 3 -1 150 c-1 83 -6 173
-11 200 -8 38 -9 18 -5 -87 l5 -136 -39 -11 c-53 -15 -129 -14 -142 2 -12 14
-19 138 -9 154 4 6 22 18 42 27 19 9 35 22 34 29 0 9 -2 9 -6 0 -2 -7 -11 -13
-20 -13 -20 0 -71 -37 -84 -61 -6 -12 -16 -51 -23 -87 -10 -54 -16 -68 -32
-70 -11 -2 -29 7 -39 18 -19 21 -19 22 13 79 18 32 32 69 32 83 0 13 7 34 16
46 27 39 10 34 -58 -17 -90 -68 -154 -143 -217 -255 -30 -53 -57 -96 -61 -96
-4 0 -24 7 -43 15 -40 17 -67 19 -67 7 0 -5 18 -14 40 -21 39 -11 60 -34 60
-65 0 -13 -5 -14 -26 -6 -14 6 -46 9 -72 9 l-47 -1 45 -10 c25 -5 63 -18 85
-29 l40 -19 -55 5 c-61 6 -150 -19 -158 -44 -4 -11 1 -12 19 -7 18 6 148 15
227 16 1 0 -5 12 -15 27 -10 14 -19 37 -21 49 -6 46 77 180 212 342 51 60 62
69 64 52 2 -12 -8 -38 -22 -58 -49 -72 -74 -170 -46 -187 6 -4 7 -23 4 -45 -3
-21 -1 -54 6 -74 14 -43 -4 -136 -27 -136 -7 0 -13 -4 -13 -10 0 -5 -5 -10
-11 -10 -5 0 -7 4 -4 10 3 5 1 10 -4 10 -6 0 -11 -8 -11 -17 0 -11 19 -29 48
-44 134 -74 302 -235 302 -290 0 -23 -8 -24 -49 -3 -25 12 -51 15 -105 12 -80
-6 -141 -29 -256 -97 -135 -80 -204 -68 -335 59 -38 37 -98 84 -131 104 -76
45 -179 152 -210 220 -14 30 -24 71 -25 101 l-1 50 -31 -65 c-40 -85 -43 -163
-8 -235 36 -72 150 -182 251 -240 l84 -48 -24 -16 c-31 -20 -70 -61 -70 -73 0
-5 109 -8 245 -8 135 1 245 4 245 6 0 3 -5 14 -11 26 -6 11 -8 32 -4 46 6 25
8 24 27 -26 25 -67 33 -63 11 5 -14 43 -14 55 -3 67 21 26 27 19 45 -54 9 -38
21 -70 26 -70 12 0 13 -4 -15 76 l-23 70 30 18 c36 20 41 15 56 -54 10 -48 40
-123 41 -103 0 7 -12 49 -26 93 -14 45 -24 83 -22 84 18 14 71 27 77 20 17
-19 41 -96 47 -149 4 -30 10 -55 14 -55 11 0 -7 102 -29 159 -11 30 -20 56
-18 56 1 1 19 5 39 8 35 5 37 4 53 -36 10 -23 21 -76 25 -117 l7 -75 2 67 c1
45 -5 84 -18 118 -19 49 -19 50 0 50 10 0 19 -1 19 -3 0 -14 39 -108 40 -94 0
10 -7 33 -14 52 -8 19 -11 35 -6 35 14 0 30 -35 30 -65 0 -14 4 -24 8 -21 10
6 3 -106 -8 -117 -4 -5 -5 16 -2 45 6 68 -3 60 -11 -10 l-6 -52 264 0 c146 0
265 3 265 6 0 3 -5 15 -11 26 -16 30 -33 248 -32 411 0 96 -3 137 -11 137 -6
0 -4 5 4 10 12 8 11 10 -7 10 -27 0 -38 33 -29 83 6 36 -6 63 -24 52 -9 -6 -9
-2 1 16 l12 23 36 -44 c116 -144 231 -239 351 -290 44 -19 74 -23 150 -24 128
-1 182 24 297 136 97 96 126 137 121 175 l-3 28 92 -3 c210 -8 328 77 382 277
48 178 11 300 -113 372 -72 41 -82 38 -97 -21z m-370 -193 l44 -14 -46 -19
c-25 -10 -43 -22 -41 -26 7 -10 1 -10 -30 2 -18 6 -26 17 -26 33 0 41 22 47
99 24z m-1363 -171 c-4 -25 -11 -48 -17 -51 -11 -8 -11 -7 2 55 13 62 24 59
15 -4z m67 -136 c-3 -11 0 -20 6 -20 6 0 11 9 11 20 0 16 7 20 33 20 32 0 32
-1 29 -39 l-4 -38 -66 -7 c-37 -3 -76 -7 -87 -8 -17 -3 -20 2 -18 31 2 43 42
74 44 34 0 -14 2 -15 6 -3 13 33 54 42 46 10z m137 -20 c0 -36 -2 -40 -25 -40
-20 0 -25 5 -25 24 0 37 10 56 31 56 15 0 19 -7 19 -40z m100 0 c0 -22 -4 -40
-10 -40 -5 0 -10 18 -10 40 0 22 5 40 10 40 6 0 10 -18 10 -40z m72 -2 l1 -43
4 38 c4 32 7 37 21 32 9 -4 30 -12 45 -17 24 -9 28 -15 25 -41 -5 -46 -28 -47
-29 0 l-1 38 -9 -33 c-7 -24 -14 -32 -25 -28 -9 3 -33 6 -55 6 l-39 0 0 45 c0
43 1 45 30 45 28 0 30 -2 32 -42z m-420 -28 c2 -28 0 -40 -9 -40 -14 0 -19 61
-6 73 10 11 11 9 15 -33z m544 4 c-3 -9 -6 -22 -6 -30 0 -8 -4 -14 -8 -14 -5
0 -7 14 -4 30 2 17 9 30 14 30 6 0 7 -7 4 -16z m19 -34 c-4 -12 -9 -19 -12
-17 -3 3 -2 15 2 27 4 12 9 19 12 17 3 -3 2 -15 -2 -27z"/>
<path d="M1771 834 c0 -11 3 -14 6 -6 3 7 2 16 -1 19 -3 4 -6 -2 -5 -13z"/>
<path d="M1590 1399 c-11 -8 -5 -9 25 -5 34 6 37 5 20 -6 -11 -6 -43 -34 -70
-62 -28 -28 -74 -63 -101 -78 -62 -33 -176 -61 -215 -53 -33 8 -59 39 -59 72
0 13 -5 23 -11 23 -22 0 11 -169 37 -191 9 -7 32 0 82 25 120 61 306 177 338
212 22 24 40 34 60 34 29 -1 147 -53 139 -62 -3 -3 1 -5 9 -5 11 0 12 4 3 18
-8 13 -8 21 2 33 11 13 6 18 -29 36 -53 27 -63 20 -14 -11 56 -34 26 -34 -47
1 -67 31 -140 40 -169 19z"/>
<path d="M2121 1367 c-20 -24 -22 -33 -13 -48 7 -10 12 -30 12 -44 0 -15 3
-24 8 -21 4 2 7 22 6 43 -1 21 2 43 8 50 5 7 8 20 6 31 -3 16 -6 15 -27 -11z"/>
<path d="M1871 1254 c0 -11 3 -14 6 -6 3 7 2 16 -1 19 -3 4 -6 -2 -5 -13z"/>
<path d="M1801 1224 c0 -11 3 -14 6 -6 3 7 2 16 -1 19 -3 4 -6 -2 -5 -13z"/>
<path d="M2122 1220 c0 -14 2 -19 5 -12 2 6 2 18 0 25 -3 6 -5 1 -5 -13z"/>
<path d="M1882 1200 c0 -19 2 -27 5 -17 2 9 2 25 0 35 -3 9 -5 1 -5 -18z"/>
<path d="M2822 1170 c0 -14 2 -19 5 -12 2 6 2 18 0 25 -3 6 -5 1 -5 -13z"/>
<path d="M2908 1173 c7 -3 16 -2 19 1 4 3 -2 6 -13 5 -11 0 -14 -3 -6 -6z"/>
<path d="M1867 1130 c-4 -16 -2 -42 4 -58 5 -16 9 -35 7 -42 -2 -7 3 -15 10
-17 16 -6 16 49 0 65 -7 7 -11 28 -10 47 3 43 -3 46 -11 5z"/>
<path d="M2110 1146 c0 -2 15 -9 33 -15 29 -10 30 -9 13 4 -18 14 -46 20 -46
11z"/>
<path d="M2832 1120 c0 -14 2 -19 5 -12 2 6 2 18 0 25 -3 6 -5 1 -5 -13z"/>
<path d="M2842 1063 c14 -34 35 -58 23 -28 -4 11 -10 28 -12 38 -3 9 -9 17
-14 17 -5 0 -3 -12 3 -27z"/>
</g>
</svg>
